Coordinates
nRows=224
nColumns=2
inDegrees=yes
endheader
time	ankle_angle_r	
3.16028	 -4.935650	
3.19355	 -4.963302	
3.22681	 -4.928589	
3.26008	 -4.969976	
3.29335	 -5.000397	
3.32661	 -4.978948	
3.35988	 -4.965007	
3.39315	 -4.974365	
3.42641	 -4.938334	
3.45968	 -4.979686	
3.49294	 -4.974365	
3.52621	 -4.938685	
3.55948	 -4.974365	
3.59274	 -4.969009	
3.62601	 -4.954752	
3.65927	 -4.968816	
3.69254	 -4.995270	
3.72581	 -5.014399	
3.75907	 -4.999043	
3.79234	 -5.041337	
3.8256	 -5.004883	
3.85887	 -5.038401	
3.89214	 -5.047853	
3.9254	 -5.013819	
3.95867	 -5.035400	
3.99194	 -5.044143	
4.0252	 -5.030821	
4.05847	 -5.042110	
4.09173	 -5.026947	
4.125	 -5.011786	
4.15827	 -5.036660	
4.19153	 -5.036467	
4.2248	 -5.019269	
4.25806	 -5.050659	
4.29133	 -5.058532	
4.3246	 -5.020434	
4.35786	 -5.058438	
4.39113	 -5.042983	
4.4244	 -5.020429	
4.45766	 -5.058529	
4.49093	 -5.049985	
4.52419	 -5.035400	
4.55746	 -5.035400	
4.59073	 -5.058916	
4.62399	 -4.996530	
4.65726	 -5.011692	
4.69052	 -5.043947	
4.72379	 -4.998267	
4.75706	 -5.048439	
4.79032	 -5.011305	
4.82359	 -5.007491	
4.85685	 -5.032599	
4.89012	 -5.050659	
4.92339	 -5.004883	
4.95665	 -5.014203	
4.98992	 -5.025984	
5.02319	 -4.999137	
5.05645	 -5.039361	
5.08972	 -5.029848	
5.12298	 -4.938392	
5.15625	 -5.030859	
5.18952	 -4.979627	
5.22278	 -4.938920	
5.25605	 -5.020142	
5.28931	 -4.994939	
5.32258	 -4.968857	
5.35585	 -5.010584	
5.38911	 -4.979047	
5.42238	 -4.959106	
5.45565	 -5.030912	
5.48891	 -5.004883	
5.52218	 -5.011551	
5.55544	 -5.050659	
5.58871	 -5.020142	
5.62198	 -4.970360	
5.65524	 -5.054568	
5.68851	 -5.046847	
5.72177	 -5.020142	
5.75504	 -5.023760	
5.78831	 -5.027185	
5.82157	 -4.993049	
5.85484	 -5.028744	
5.8881	 -5.001651	
5.92137	 -5.013872	
5.95464	 -4.989624	
5.9879	 -5.008375	
6.02117	 -4.983934	
6.05444	 -4.977113	
6.0877	 -5.004883	
6.12097	 -4.938738	
6.15423	 -4.987166	
6.1875	 -5.020142	
6.22077	 -4.959106	
6.25403	 -5.002715	
6.2873	 -4.989624	
6.32056	 -4.972391	
6.35383	 -5.018263	
6.3871	 -5.018360	
6.42036	 -4.974365	
6.45363	 -5.021729	
6.4869	 -5.046185	
6.52016	 -5.003488	
6.55343	 -5.020142	
6.58669	 -5.003682	
6.61996	 -5.005987	
6.65323	 -4.974365	
6.68649	 -4.971632	
6.71976	 -4.943033	
6.75302	 -5.004883	
6.78629	 -5.018899	
6.81956	 -4.959106	
6.85282	 -4.990052	
6.88609	 -4.988962	
6.91935	 -4.974365	
6.95262	 -4.974503	
6.98589	 -5.004883	
7.01915	 -4.974309	
7.05242	 -5.005188	
7.08569	 -4.974365	
7.11895	 -4.944193	
7.15222	 -5.005325	
7.18548	 -4.929667	
7.21875	 -4.959742	
7.25202	 -5.007080	
7.28528	 -4.974365	
7.31855	 -4.974365	
7.35181	 -5.019119	
7.38508	 -4.974365	
7.41835	 -4.989624	
7.45161	 -5.018829	
7.48488	 -4.988215	
7.51815	 -4.942342	
7.55141	 -4.972763	
7.58468	 -4.957407	
7.61794	 -4.916922	
7.65121	 -4.959106	
7.68448	 -4.961096	
7.71774	 -4.928589	
7.75101	 -4.961289	
7.78427	 -4.926310	
7.81754	 -4.956730	
7.85081	 -4.946321	
7.88407	 -4.898071	
7.91734	 -4.928589	
7.9506	 -4.959106	
7.98387	 -4.956247	
8.01714	 -4.989624	
8.0504	 -4.998777	
8.08367	 -4.980664	
8.11694	 -4.950340	
8.1502	 -5.016798	
8.18347	 -5.001443	
8.21673	 -4.984974	
8.25	 -5.035400	
8.28327	 -4.978095	
8.31653	 -5.008662	
8.3498	 -5.008806	
8.38306	 -4.996843	
8.41633	 -4.993741	
8.4496	 -5.013309	
8.48286	 -4.993934	
8.51613	 -4.989624	
8.5494	 -5.035400	
8.58266	 -4.989624	
8.61593	 -4.999017	
8.64919	 -5.041073	
8.68246	 -4.995103	
8.71573	 -4.999896	
8.74899	 -5.020142	
8.78226	 -5.004883	
8.81552	 -5.004883	
8.84879	 -5.035400	
8.88206	 -5.004883	
8.91532	 -4.974365	
8.94859	 -5.035400	
8.98185	 -4.993362	
9.01512	 -4.995481	
9.04839	 -5.026095	
9.08165	 -4.998833	
9.11492	 -4.980512	
9.14819	 -5.013898	
9.18145	 -4.959106	
9.21472	 -4.937411	
9.24798	 -4.976557	
9.28125	 -4.980996	
9.31452	 -4.942043	
9.34778	 -4.952283	
9.38105	 -4.928589	
9.41431	 -4.929813	
9.44758	 -4.981479	
9.48085	 -4.989624	
9.51411	 -4.921282	
9.54738	 -5.004883	
9.58065	 -4.936605	
9.61391	 -4.943912	
9.64718	 -4.951541	
9.68044	 -4.959429	
9.71371	 -4.913846	
9.74698	 -4.974365	
9.78024	 -4.928589	
9.81351	 -4.943848	
9.84677	 -4.982639	
9.88004	 -4.952219	
9.91331	 -4.948963	
9.94657	 -4.950542	
9.97984	 -4.952508	
10.0131	 -4.959106	
10.0464	 -4.965511	
10.0796	 -4.928589	
10.1129	 -4.959106	
10.1462	 -4.986595	
10.1794	 -4.928589	
10.2127	 -4.965028	
10.246	 -4.934413	
10.2792	 -4.949575	
10.3125	 -4.974365	
10.3458	 -4.974365	
10.379	 -4.959106	
10.4123	 -4.959106	
10.4456	 -4.979609	
10.4788	 -4.974365	
10.5121	 -4.994781	
10.5454	 -4.964061	
10.5786	 -4.968822	
